<svg width="16" height="17" viewBox="0 0 16 17" fill="none" xmlns="http://www.w3.org/2000/svg">
<path d="M3.54687 15.9379H2.60937C2.42289 15.9379 2.24405 15.8597 2.11219 15.7206C1.98033 15.5814 1.90625 15.3927 1.90625 15.1959V10.7445C1.90625 10.5477 1.98033 10.359 2.11219 10.2199C2.24405 10.0807 2.42289 10.0026 2.60937 10.0026H3.54687C3.73335 10.0026 3.9122 10.0807 4.04406 10.2199C4.17592 10.359 4.25 10.5477 4.25 10.7445V15.1959C4.25 15.3927 4.17592 15.5814 4.04406 15.7206C3.9122 15.8597 3.73335 15.9379 3.54687 15.9379V15.9379Z" fill="white"/>
<path d="M10.1094 15.937H9.17187C8.98539 15.937 8.80655 15.8588 8.67469 15.7197C8.54283 15.5806 8.46875 15.3919 8.46875 15.1951V7.77597C8.46875 7.5792 8.54283 7.39049 8.67469 7.25136C8.80655 7.11222 8.98539 7.03406 9.17187 7.03406H10.1094C10.2959 7.03406 10.4747 7.11222 10.6066 7.25136C10.7384 7.39049 10.8125 7.5792 10.8125 7.77597V15.1951C10.8125 15.3919 10.7384 15.5806 10.6066 15.7197C10.4747 15.8588 10.2959 15.937 10.1094 15.937V15.937Z" fill="white"/>
<path d="M13.3906 15.9375H12.4531C12.2666 15.9375 12.0878 15.8593 11.9559 15.7202C11.8241 15.581 11.75 15.3923 11.75 15.1956V4.31418C11.75 4.11741 11.8241 3.9287 11.9559 3.78957C12.0878 3.65043 12.2666 3.57227 12.4531 3.57227H13.3906C13.5771 3.57227 13.7559 3.65043 13.8878 3.78957C14.0197 3.9287 14.0937 4.11741 14.0937 4.31418V15.1956C14.0937 15.3923 14.0197 15.581 13.8878 15.7202C13.7559 15.8593 13.5771 15.9375 13.3906 15.9375V15.9375Z" fill="white"/>
<path d="M6.82812 15.9371H5.89062C5.70414 15.9371 5.5253 15.859 5.39344 15.7198C5.26158 15.5807 5.1875 15.392 5.1875 15.1952V1.84079C5.1875 1.64402 5.26158 1.45531 5.39344 1.31618C5.5253 1.17704 5.70414 1.09888 5.89062 1.09888H6.82812C7.0146 1.09888 7.19345 1.17704 7.32531 1.31618C7.45717 1.45531 7.53125 1.64402 7.53125 1.84079V15.1952C7.53125 15.392 7.45717 15.5807 7.32531 15.7198C7.19345 15.859 7.0146 15.9371 6.82812 15.9371V15.9371Z" fill="white"/>
</svg>
